<?xml version="1.0" encoding="utf-8"?>
<!-- Generator: Adobe Illustrator 21.0.0, SVG Export Plug-In . SVG Version: 6.00 Build 0)  -->
<svg version="1.1" id="Calque_1" xmlns="http://www.w3.org/2000/svg" xmlns:xlink="http://www.w3.org/1999/xlink" x="0px" y="0px"
	 viewBox="0 0 89.4 33" style="enable-background:new 0 0 89.4 33;" xml:space="preserve">
<style type="text/css">
	.st0{fill:#FF4C60;}
</style>
<title>Bolby</title>
<desc>Created with Sketch.</desc>
<g id="Symbols">
	<g id="header" transform="translate(-42.000000, -61.000000)">
		<g id="Bolby.">
			<g>
				<path d="M47.6,74.9c-0.2,0-0.4-0.1-0.5-0.2c-0.1-0.1-0.2-0.2-0.3-0.4L42.9,62c0-0.1,0-0.1,0-0.2c0-0.1,0-0.2,0.1-0.3
					c0.1-0.1,0.2-0.1,0.3-0.1h2.4c0.2,0,0.4,0.1,0.5,0.2c0.1,0.1,0.2,0.2,0.2,0.3l2.7,8.9l2.7-8.9c0-0.1,0.1-0.2,0.2-0.3
					c0.1-0.1,0.3-0.2,0.5-0.2h2.4c0.1,0,0.2,0,0.3,0.1c0.1,0.1,0.1,0.2,0.1,0.3c0,0.1,0,0.1,0,0.2l-3.9,12.3c0,0.2-0.1,0.3-0.2,0.4
					c-0.1,0.1-0.3,0.2-0.5,0.2H47.6z"/>
				<path d="M54.8,74.9c-0.1,0-0.2,0-0.3-0.1c-0.1-0.1-0.1-0.2-0.1-0.3c0-0.1,0-0.1,0-0.2l4.5-12.3c0-0.1,0.1-0.3,0.2-0.4
					c0.1-0.1,0.3-0.2,0.5-0.2h2.8c0.2,0,0.4,0.1,0.5,0.2c0.1,0.1,0.2,0.2,0.2,0.4l4.5,12.3c0,0.1,0,0.1,0,0.2c0,0.1,0,0.2-0.1,0.3
					c-0.1,0.1-0.2,0.1-0.3,0.1H65c-0.2,0-0.3,0-0.4-0.1s-0.2-0.2-0.2-0.3l-0.7-2h-5.1l-0.7,2c0,0.1-0.1,0.2-0.2,0.3
					c-0.1,0.1-0.2,0.1-0.5,0.1H54.8z M59.3,69.7h3.6l-1.8-5.1L59.3,69.7z"/>
				<path d="M69.3,74.9c-0.1,0-0.3,0-0.3-0.1c-0.1-0.1-0.1-0.2-0.1-0.3V61.9c0-0.1,0-0.3,0.1-0.3c0.1-0.1,0.2-0.1,0.3-0.1h2
					c0.2,0,0.4,0,0.5,0.1s0.2,0.2,0.2,0.2l4.7,7.4v-7.3c0-0.1,0-0.3,0.1-0.3c0.1-0.1,0.2-0.1,0.3-0.1h2.3c0.1,0,0.3,0,0.3,0.1
					c0.1,0.1,0.1,0.2,0.1,0.3v12.5c0,0.1,0,0.3-0.1,0.4c-0.1,0.1-0.2,0.1-0.3,0.1h-2.1c-0.2,0-0.4-0.1-0.5-0.2
					c-0.1-0.1-0.2-0.2-0.2-0.2l-4.7-7.1v7c0,0.1,0,0.2-0.1,0.3c-0.1,0.1-0.2,0.1-0.3,0.1H69.3z"/>
				<path d="M82.7,74.9c-0.1,0-0.3,0-0.3-0.1c-0.1-0.1-0.1-0.2-0.1-0.3V61.9c0-0.1,0-0.3,0.1-0.3c0.1-0.1,0.2-0.1,0.3-0.1h9
					c0.1,0,0.3,0,0.3,0.1c0.1,0.1,0.1,0.2,0.1,0.3v1.8c0,0.1,0,0.3-0.1,0.3c-0.1,0.1-0.2,0.1-0.3,0.1h-6.1v2.6h5.7
					c0.1,0,0.3,0,0.3,0.1c0.1,0.1,0.1,0.2,0.1,0.4v1.7c0,0.1,0,0.2-0.1,0.3c-0.1,0.1-0.2,0.1-0.3,0.1h-5.7v2.7h6.3
					c0.1,0,0.3,0,0.3,0.1c0.1,0.1,0.1,0.2,0.1,0.3v1.8c0,0.1,0,0.2-0.1,0.3c-0.1,0.1-0.2,0.1-0.3,0.1H82.7z"/>
				<path d="M99,75.1c-1.3,0-2.3-0.2-3.2-0.5c-0.8-0.4-1.5-0.8-1.9-1.4c-0.4-0.6-0.7-1.2-0.7-1.9c0-0.1,0-0.2,0.1-0.3
					c0.1-0.1,0.2-0.1,0.3-0.1H96c0.2,0,0.3,0,0.4,0.1c0.1,0.1,0.2,0.1,0.3,0.2c0.1,0.2,0.2,0.4,0.4,0.6c0.2,0.2,0.4,0.3,0.7,0.4
					c0.3,0.1,0.7,0.2,1.1,0.2c0.7,0,1.3-0.1,1.7-0.3c0.4-0.2,0.6-0.5,0.6-0.9c0-0.3-0.1-0.5-0.3-0.7c-0.2-0.2-0.5-0.3-1-0.5
					c-0.5-0.1-1.1-0.3-1.8-0.5c-1-0.2-1.8-0.5-2.5-0.8c-0.7-0.3-1.2-0.8-1.6-1.3c-0.4-0.5-0.5-1.2-0.5-2c0-0.8,0.2-1.5,0.7-2.1
					c0.4-0.6,1.1-1.1,1.9-1.4c0.8-0.3,1.7-0.5,2.8-0.5c0.9,0,1.7,0.1,2.3,0.3c0.7,0.2,1.2,0.5,1.7,0.9c0.5,0.4,0.8,0.8,1,1.2
					c0.2,0.4,0.4,0.8,0.4,1.3c0,0.1,0,0.2-0.1,0.3c-0.1,0.1-0.2,0.1-0.3,0.1h-2.5c-0.1,0-0.3,0-0.4-0.1c-0.1-0.1-0.2-0.1-0.3-0.2
					c-0.1-0.3-0.3-0.5-0.6-0.7c-0.3-0.2-0.8-0.3-1.3-0.3c-0.6,0-1,0.1-1.3,0.3c-0.3,0.2-0.5,0.5-0.5,0.9c0,0.3,0.1,0.5,0.3,0.7
					s0.5,0.4,0.9,0.5c0.4,0.1,1,0.3,1.7,0.4c1.2,0.2,2.1,0.5,2.8,0.8c0.7,0.3,1.2,0.7,1.6,1.3c0.3,0.5,0.5,1.2,0.5,2
					c0,0.9-0.2,1.6-0.7,2.2c-0.5,0.6-1.2,1.1-2,1.5C101.1,74.9,100.1,75.1,99,75.1z"/>
				<path d="M111.3,75.1c-1.3,0-2.3-0.2-3.2-0.5c-0.8-0.4-1.5-0.8-1.9-1.4c-0.4-0.6-0.7-1.2-0.7-1.9c0-0.1,0-0.2,0.1-0.3
					c0.1-0.1,0.2-0.1,0.3-0.1h2.4c0.2,0,0.3,0,0.4,0.1c0.1,0.1,0.2,0.1,0.3,0.2c0.1,0.2,0.2,0.4,0.4,0.6c0.2,0.2,0.4,0.3,0.7,0.4
					c0.3,0.1,0.7,0.2,1.1,0.2c0.7,0,1.3-0.1,1.7-0.3c0.4-0.2,0.6-0.5,0.6-0.9c0-0.3-0.1-0.5-0.3-0.7c-0.2-0.2-0.5-0.3-1-0.5
					c-0.5-0.1-1.1-0.3-1.8-0.5c-1-0.2-1.8-0.5-2.5-0.8c-0.7-0.3-1.2-0.8-1.6-1.3c-0.4-0.5-0.5-1.2-0.5-2c0-0.8,0.2-1.5,0.7-2.1
					c0.4-0.6,1.1-1.1,1.9-1.4c0.8-0.3,1.7-0.5,2.8-0.5c0.9,0,1.7,0.1,2.3,0.3c0.7,0.2,1.2,0.5,1.7,0.9c0.5,0.4,0.8,0.8,1,1.2
					c0.2,0.4,0.4,0.8,0.4,1.3c0,0.1,0,0.2-0.1,0.3c-0.1,0.1-0.2,0.1-0.3,0.1h-2.5c-0.1,0-0.3,0-0.4-0.1c-0.1-0.1-0.2-0.1-0.3-0.2
					c-0.1-0.3-0.3-0.5-0.6-0.7c-0.3-0.2-0.8-0.3-1.3-0.3c-0.6,0-1,0.1-1.3,0.3c-0.3,0.2-0.5,0.5-0.5,0.9c0,0.3,0.1,0.5,0.3,0.7
					s0.5,0.4,0.9,0.5c0.4,0.1,1,0.3,1.7,0.4c1.2,0.2,2.1,0.5,2.8,0.8c0.7,0.3,1.2,0.7,1.6,1.3c0.3,0.5,0.5,1.2,0.5,2
					c0,0.9-0.2,1.6-0.7,2.2c-0.5,0.6-1.2,1.1-2,1.5C113.4,74.9,112.4,75.1,111.3,75.1z"/>
				<path d="M117.5,74.9c-0.1,0-0.2,0-0.3-0.1c-0.1-0.1-0.1-0.2-0.1-0.3c0-0.1,0-0.1,0-0.2l4.5-12.3c0-0.1,0.1-0.3,0.2-0.4
					c0.1-0.1,0.3-0.2,0.5-0.2h2.8c0.2,0,0.4,0.1,0.5,0.2c0.1,0.1,0.2,0.2,0.2,0.4l4.5,12.3c0,0.1,0,0.1,0,0.2c0,0.1,0,0.2-0.1,0.3
					c-0.1,0.1-0.2,0.1-0.3,0.1h-2.4c-0.2,0-0.3,0-0.4-0.1s-0.2-0.2-0.2-0.3l-0.7-2h-5.1l-0.7,2c0,0.1-0.1,0.2-0.2,0.3
					c-0.1,0.1-0.2,0.1-0.5,0.1H117.5z M122,69.7h3.6l-1.8-5.1L122,69.7z"/>
				<path d="M47.3,93.6c-0.1,0-0.3,0-0.3-0.1c-0.1-0.1-0.1-0.2-0.1-0.3V80.6c0-0.1,0-0.3,0.1-0.3c0.1-0.1,0.2-0.1,0.3-0.1h9
					c0.1,0,0.3,0,0.3,0.1c0.1,0.1,0.1,0.2,0.1,0.3v1.8c0,0.1,0,0.3-0.1,0.3c-0.1,0.1-0.2,0.1-0.3,0.1h-6.1v2.6h5.7
					c0.1,0,0.3,0,0.3,0.1c0.1,0.1,0.1,0.2,0.1,0.4v1.7c0,0.1,0,0.2-0.1,0.3c-0.1,0.1-0.2,0.1-0.3,0.1h-5.7v2.7h6.3
					c0.1,0,0.3,0,0.3,0.1c0.1,0.1,0.1,0.2,0.1,0.3v1.8c0,0.1,0,0.2-0.1,0.3c-0.1,0.1-0.2,0.1-0.3,0.1H47.3z"/>
				<path d="M63.7,93.8c-1.3,0-2.3-0.2-3.2-0.5c-0.8-0.4-1.5-0.8-1.9-1.4c-0.4-0.6-0.7-1.2-0.7-1.9c0-0.1,0-0.2,0.1-0.3
					c0.1-0.1,0.2-0.1,0.3-0.1h2.4c0.2,0,0.3,0,0.4,0.1c0.1,0.1,0.2,0.1,0.3,0.2c0.1,0.2,0.2,0.4,0.4,0.6c0.2,0.2,0.4,0.3,0.7,0.4
					c0.3,0.1,0.7,0.2,1.1,0.2c0.7,0,1.3-0.1,1.7-0.3c0.4-0.2,0.6-0.5,0.6-0.9c0-0.3-0.1-0.5-0.3-0.7c-0.2-0.2-0.5-0.3-1-0.5
					c-0.5-0.1-1.1-0.3-1.8-0.5c-1-0.2-1.8-0.5-2.5-0.8c-0.7-0.3-1.2-0.8-1.6-1.3c-0.4-0.5-0.5-1.2-0.5-2c0-0.8,0.2-1.5,0.7-2.1
					c0.4-0.6,1.1-1.1,1.9-1.4c0.8-0.3,1.7-0.5,2.8-0.5c0.9,0,1.7,0.1,2.3,0.3c0.7,0.2,1.2,0.5,1.7,0.9c0.5,0.4,0.8,0.8,1,1.2
					c0.2,0.4,0.4,0.8,0.4,1.3c0,0.1,0,0.2-0.1,0.3c-0.1,0.1-0.2,0.1-0.3,0.1h-2.5c-0.1,0-0.3,0-0.4-0.1c-0.1-0.1-0.2-0.1-0.3-0.2
					c-0.1-0.3-0.3-0.5-0.6-0.7c-0.3-0.2-0.8-0.3-1.3-0.3c-0.6,0-1,0.1-1.3,0.3c-0.3,0.2-0.5,0.5-0.5,0.9c0,0.3,0.1,0.5,0.3,0.7
					c0.2,0.2,0.5,0.4,0.9,0.5c0.4,0.1,1,0.3,1.7,0.4c1.2,0.2,2.1,0.5,2.8,0.8c0.7,0.3,1.2,0.7,1.6,1.3c0.3,0.5,0.5,1.2,0.5,2
					c0,0.9-0.2,1.6-0.7,2.2c-0.5,0.6-1.2,1.1-2,1.5C65.8,93.6,64.8,93.8,63.7,93.8z"/>
				<path d="M75.9,93.8c-1.3,0-2.3-0.2-3.2-0.5c-0.8-0.4-1.5-0.8-1.9-1.4c-0.4-0.6-0.7-1.2-0.7-1.9c0-0.1,0-0.2,0.1-0.3
					c0.1-0.1,0.2-0.1,0.3-0.1H73c0.2,0,0.3,0,0.4,0.1c0.1,0.1,0.2,0.1,0.3,0.2c0.1,0.2,0.2,0.4,0.4,0.6c0.2,0.2,0.4,0.3,0.7,0.4
					c0.3,0.1,0.7,0.2,1.1,0.2c0.7,0,1.3-0.1,1.7-0.3c0.4-0.2,0.6-0.5,0.6-0.9c0-0.3-0.1-0.5-0.3-0.7c-0.2-0.2-0.5-0.3-1-0.5
					c-0.5-0.1-1.1-0.3-1.8-0.5c-1-0.2-1.8-0.5-2.5-0.8C71.9,87,71.4,86.5,71,86c-0.4-0.5-0.5-1.2-0.5-2c0-0.8,0.2-1.5,0.7-2.1
					c0.4-0.6,1.1-1.1,1.9-1.4c0.8-0.3,1.7-0.5,2.8-0.5c0.9,0,1.7,0.1,2.3,0.3c0.7,0.2,1.2,0.5,1.7,0.9c0.5,0.4,0.8,0.8,1,1.2
					c0.2,0.4,0.4,0.8,0.4,1.3c0,0.1,0,0.2-0.1,0.3c-0.1,0.1-0.2,0.1-0.3,0.1h-2.5c-0.1,0-0.3,0-0.4-0.1c-0.1-0.1-0.2-0.1-0.3-0.2
					c-0.1-0.3-0.3-0.5-0.6-0.7c-0.3-0.2-0.8-0.3-1.3-0.3c-0.6,0-1,0.1-1.3,0.3c-0.3,0.2-0.5,0.5-0.5,0.9c0,0.3,0.1,0.5,0.3,0.7
					c0.2,0.2,0.5,0.4,0.9,0.5c0.4,0.1,1,0.3,1.7,0.4c1.2,0.2,2.1,0.5,2.8,0.8c0.7,0.3,1.2,0.7,1.6,1.3c0.3,0.5,0.5,1.2,0.5,2
					c0,0.9-0.2,1.6-0.7,2.2c-0.5,0.6-1.2,1.1-2,1.5C78.1,93.6,77.1,93.8,75.9,93.8z"/>
				<path d="M88.7,93.8c-1.2,0-2.2-0.2-3.1-0.6c-0.9-0.4-1.6-1-2-1.7c-0.5-0.8-0.8-1.7-0.8-2.9c0-0.6,0-1.1,0-1.7c0-0.6,0-1.1,0-1.7
					c0.1-1.2,0.3-2.1,0.8-2.9c0.5-0.8,1.2-1.4,2.1-1.8c0.9-0.4,1.9-0.6,3-0.6c1.2,0,2.2,0.2,3.1,0.6c0.9,0.4,1.6,1,2.1,1.8
					c0.5,0.8,0.8,1.8,0.8,2.9c0,0.6,0,1.1,0,1.7c0,0.6,0,1.1,0,1.7c0,1.2-0.3,2.1-0.8,2.9c-0.5,0.8-1.2,1.4-2,1.7
					C90.9,93.6,89.8,93.8,88.7,93.8z M88.7,91c0.7,0,1.2-0.2,1.7-0.6c0.4-0.4,0.7-1.1,0.7-2c0-0.6,0-1.1,0-1.6s0-1,0-1.6
					c0-0.6-0.1-1.1-0.3-1.5c-0.2-0.4-0.5-0.7-0.8-0.8c-0.3-0.2-0.7-0.3-1.2-0.3c-0.4,0-0.8,0.1-1.2,0.3c-0.3,0.2-0.6,0.5-0.8,0.8
					c-0.2,0.4-0.3,0.9-0.3,1.5c0,0.5,0,1.1,0,1.6s0,1,0,1.6c0,0.9,0.3,1.6,0.7,2C87.4,90.8,88,91,88.7,91z"/>
				<path class="st0" d="M96.4,93.6c-0.2,0-0.3-0.1-0.4-0.2c-0.1-0.1-0.1-0.2-0.1-0.4v-2.6c0-0.2,0-0.3,0.1-0.4
					c0.1-0.1,0.2-0.1,0.4-0.1h2.6c0.1,0,0.3,0,0.4,0.1c0.1,0.1,0.2,0.2,0.2,0.4v2.6c0,0.1-0.1,0.3-0.2,0.4c-0.1,0.1-0.2,0.2-0.4,0.2
					H96.4z"/>
			</g>
		</g>
	</g>
</g>
</svg>
