<?xml version="1.0" encoding="utf-8"?>
<!-- Generator: Adobe Illustrator 21.0.0, SVG Export Plug-In . SVG Version: 6.00 Build 0)  -->
<svg version="1.1" id="Calque_1" xmlns="http://www.w3.org/2000/svg" xmlns:xlink="http://www.w3.org/1999/xlink" x="0px" y="0px"
	 viewBox="0 0 100 34" style="enable-background:new 0 0 100 34;" xml:space="preserve">
<style type="text/css">
	.st0{fill:#FFFFFF;}
	.st1{fill:#FF4C60;}
</style>
<g id="Symbols">
	<g id="header" transform="translate(-42.000000, -61.000000)">
		<g id="Bolby.">
			<g>
				<path class="st0" d="M52.9,75.4c-0.2,0-0.4-0.1-0.5-0.2c-0.1-0.1-0.2-0.2-0.3-0.4l-3.9-12.3c0-0.1,0-0.1,0-0.2
					c0-0.1,0-0.2,0.1-0.3c0.1-0.1,0.2-0.1,0.3-0.1H51c0.2,0,0.4,0.1,0.5,0.2c0.1,0.1,0.2,0.2,0.2,0.3l2.7,8.9l2.7-8.9
					c0-0.1,0.1-0.2,0.2-0.3c0.1-0.1,0.3-0.2,0.5-0.2h2.4c0.1,0,0.2,0,0.3,0.1c0.1,0.1,0.1,0.2,0.1,0.3c0,0.1,0,0.1,0,0.2l-3.9,12.3
					c0,0.2-0.1,0.3-0.2,0.4c-0.1,0.1-0.3,0.2-0.5,0.2H52.9z"/>
				<path class="st0" d="M60.1,75.4c-0.1,0-0.2,0-0.3-0.1c-0.1-0.1-0.1-0.2-0.1-0.3c0-0.1,0-0.1,0-0.2l4.5-12.3
					c0-0.1,0.1-0.3,0.2-0.4c0.1-0.1,0.3-0.2,0.5-0.2h2.8c0.2,0,0.4,0.1,0.5,0.2c0.1,0.1,0.2,0.2,0.2,0.4l4.5,12.3c0,0.1,0,0.1,0,0.2
					c0,0.1,0,0.2-0.1,0.3c-0.1,0.1-0.2,0.1-0.3,0.1h-2.4c-0.2,0-0.3,0-0.4-0.1S69.7,75,69.7,75l-0.7-2h-5.1l-0.7,2
					c0,0.1-0.1,0.2-0.2,0.3c-0.1,0.1-0.2,0.1-0.5,0.1H60.1z M64.6,70.2h3.6l-1.8-5.1L64.6,70.2z"/>
				<path class="st0" d="M74.6,75.4c-0.1,0-0.3,0-0.3-0.1c-0.1-0.1-0.1-0.2-0.1-0.3V62.4c0-0.1,0-0.3,0.1-0.3
					c0.1-0.1,0.2-0.1,0.3-0.1h2c0.2,0,0.4,0,0.5,0.1s0.2,0.2,0.2,0.2l4.7,7.4v-7.3c0-0.1,0-0.3,0.1-0.3c0.1-0.1,0.2-0.1,0.3-0.1h2.3
					c0.1,0,0.3,0,0.3,0.1c0.1,0.1,0.1,0.2,0.1,0.3v12.5c0,0.1,0,0.3-0.1,0.4c-0.1,0.1-0.2,0.1-0.3,0.1h-2.1c-0.2,0-0.4-0.1-0.5-0.2
					c-0.1-0.1-0.2-0.2-0.2-0.2l-4.7-7.1v7c0,0.1,0,0.2-0.1,0.3c-0.1,0.1-0.2,0.1-0.3,0.1H74.6z"/>
				<path class="st0" d="M88,75.4c-0.1,0-0.3,0-0.3-0.1c-0.1-0.1-0.1-0.2-0.1-0.3V62.4c0-0.1,0-0.3,0.1-0.3c0.1-0.1,0.2-0.1,0.3-0.1
					h9c0.1,0,0.3,0,0.3,0.1c0.1,0.1,0.1,0.2,0.1,0.3v1.8c0,0.1,0,0.3-0.1,0.3c-0.1,0.1-0.2,0.1-0.3,0.1h-6.1v2.6h5.7
					c0.1,0,0.3,0,0.3,0.1c0.1,0.1,0.1,0.2,0.1,0.4v1.7c0,0.1,0,0.2-0.1,0.3c-0.1,0.1-0.2,0.1-0.3,0.1h-5.7v2.7h6.3
					c0.1,0,0.3,0,0.3,0.1c0.1,0.1,0.1,0.2,0.1,0.3v1.8c0,0.1,0,0.2-0.1,0.3c-0.1,0.1-0.2,0.1-0.3,0.1H88z"/>
				<path class="st0" d="M104.3,75.6c-1.3,0-2.3-0.2-3.2-0.5c-0.8-0.4-1.5-0.8-1.9-1.4c-0.4-0.6-0.7-1.2-0.7-1.9
					c0-0.1,0-0.2,0.1-0.3c0.1-0.1,0.2-0.1,0.3-0.1h2.4c0.2,0,0.3,0,0.4,0.1c0.1,0.1,0.2,0.1,0.3,0.2c0.1,0.2,0.2,0.4,0.4,0.6
					c0.2,0.2,0.4,0.3,0.7,0.4c0.3,0.1,0.7,0.2,1.1,0.2c0.7,0,1.3-0.1,1.7-0.3c0.4-0.2,0.6-0.5,0.6-0.9c0-0.3-0.1-0.5-0.3-0.7
					c-0.2-0.2-0.5-0.3-1-0.5c-0.5-0.1-1.1-0.3-1.8-0.5c-1-0.2-1.8-0.5-2.5-0.8c-0.7-0.3-1.2-0.8-1.6-1.3c-0.4-0.5-0.5-1.2-0.5-2
					c0-0.8,0.2-1.5,0.7-2.1c0.4-0.6,1.1-1.1,1.9-1.4c0.8-0.3,1.7-0.5,2.8-0.5c0.9,0,1.7,0.1,2.3,0.3c0.7,0.2,1.2,0.5,1.7,0.9
					c0.5,0.4,0.8,0.8,1,1.2c0.2,0.4,0.4,0.8,0.4,1.3c0,0.1,0,0.2-0.1,0.3c-0.1,0.1-0.2,0.1-0.3,0.1h-2.5c-0.1,0-0.3,0-0.4-0.1
					c-0.1-0.1-0.2-0.1-0.3-0.2c-0.1-0.3-0.3-0.5-0.6-0.7c-0.3-0.2-0.8-0.3-1.3-0.3c-0.6,0-1,0.1-1.3,0.3c-0.3,0.2-0.5,0.5-0.5,0.9
					c0,0.3,0.1,0.5,0.3,0.7s0.5,0.4,0.9,0.5c0.4,0.1,1,0.3,1.7,0.4c1.2,0.2,2.1,0.5,2.8,0.8c0.7,0.3,1.2,0.7,1.6,1.3
					c0.3,0.5,0.5,1.2,0.5,2c0,0.9-0.2,1.6-0.7,2.2c-0.5,0.6-1.2,1.1-2,1.5C106.4,75.4,105.4,75.6,104.3,75.6z"/>
				<path class="st0" d="M116.6,75.6c-1.3,0-2.3-0.2-3.2-0.5c-0.8-0.4-1.5-0.8-1.9-1.4c-0.4-0.6-0.7-1.2-0.7-1.9
					c0-0.1,0-0.2,0.1-0.3c0.1-0.1,0.2-0.1,0.3-0.1h2.4c0.2,0,0.3,0,0.4,0.1c0.1,0.1,0.2,0.1,0.3,0.2c0.1,0.2,0.2,0.4,0.4,0.6
					c0.2,0.2,0.4,0.3,0.7,0.4c0.3,0.1,0.7,0.2,1.1,0.2c0.7,0,1.3-0.1,1.7-0.3c0.4-0.2,0.6-0.5,0.6-0.9c0-0.3-0.1-0.5-0.3-0.7
					c-0.2-0.2-0.5-0.3-1-0.5c-0.5-0.1-1.1-0.3-1.8-0.5c-1-0.2-1.8-0.5-2.5-0.8c-0.7-0.3-1.2-0.8-1.6-1.3c-0.4-0.5-0.5-1.2-0.5-2
					c0-0.8,0.2-1.5,0.7-2.1c0.4-0.6,1.1-1.1,1.9-1.4c0.8-0.3,1.7-0.5,2.8-0.5c0.9,0,1.7,0.1,2.3,0.3c0.7,0.2,1.2,0.5,1.7,0.9
					c0.5,0.4,0.8,0.8,1,1.2c0.2,0.4,0.4,0.8,0.4,1.3c0,0.1,0,0.2-0.1,0.3c-0.1,0.1-0.2,0.1-0.3,0.1H119c-0.1,0-0.3,0-0.4-0.1
					c-0.1-0.1-0.2-0.1-0.3-0.2c-0.1-0.3-0.3-0.5-0.6-0.7c-0.3-0.2-0.8-0.3-1.3-0.3c-0.6,0-1,0.1-1.3,0.3c-0.3,0.2-0.5,0.5-0.5,0.9
					c0,0.3,0.1,0.5,0.3,0.7c0.2,0.2,0.5,0.4,0.9,0.5c0.4,0.1,1,0.3,1.7,0.4c1.2,0.2,2.1,0.5,2.8,0.8c0.7,0.3,1.2,0.7,1.6,1.3
					c0.3,0.5,0.5,1.2,0.5,2c0,0.9-0.2,1.6-0.7,2.2c-0.5,0.6-1.2,1.1-2,1.5C118.7,75.4,117.7,75.6,116.6,75.6z"/>
				<path class="st0" d="M122.8,75.4c-0.1,0-0.2,0-0.3-0.1c-0.1-0.1-0.1-0.2-0.1-0.3c0-0.1,0-0.1,0-0.2l4.5-12.3
					c0-0.1,0.1-0.3,0.2-0.4c0.1-0.1,0.3-0.2,0.5-0.2h2.8c0.2,0,0.4,0.1,0.5,0.2c0.1,0.1,0.2,0.2,0.2,0.4l4.5,12.3c0,0.1,0,0.1,0,0.2
					c0,0.1,0,0.2-0.1,0.3c-0.1,0.1-0.2,0.1-0.3,0.1H133c-0.2,0-0.3,0-0.4-0.1s-0.2-0.2-0.2-0.3l-0.7-2h-5.1l-0.7,2
					c0,0.1-0.1,0.2-0.2,0.3c-0.1,0.1-0.2,0.1-0.5,0.1H122.8z M127.3,70.2h3.6l-1.8-5.1L127.3,70.2z"/>
				<path class="st0" d="M52.6,94.1c-0.1,0-0.3,0-0.3-0.1c-0.1-0.1-0.1-0.2-0.1-0.3V81.1c0-0.1,0-0.3,0.1-0.3
					c0.1-0.1,0.2-0.1,0.3-0.1h9c0.1,0,0.3,0,0.3,0.1c0.1,0.1,0.1,0.2,0.1,0.3v1.8c0,0.1,0,0.3-0.1,0.3c-0.1,0.1-0.2,0.1-0.3,0.1
					h-6.1V86h5.7c0.1,0,0.3,0,0.3,0.1c0.1,0.1,0.1,0.2,0.1,0.4v1.7c0,0.1,0,0.2-0.1,0.3c-0.1,0.1-0.2,0.1-0.3,0.1h-5.7v2.7h6.3
					c0.1,0,0.3,0,0.3,0.1c0.1,0.1,0.1,0.2,0.1,0.3v1.8c0,0.1,0,0.2-0.1,0.3c-0.1,0.1-0.2,0.1-0.3,0.1H52.6z"/>
				<path class="st0" d="M68.9,94.3c-1.3,0-2.3-0.2-3.2-0.5c-0.8-0.4-1.5-0.8-1.9-1.4c-0.4-0.6-0.7-1.2-0.7-1.9c0-0.1,0-0.2,0.1-0.3
					c0.1-0.1,0.2-0.1,0.3-0.1H66c0.2,0,0.3,0,0.4,0.1c0.1,0.1,0.2,0.1,0.3,0.2c0.1,0.2,0.2,0.4,0.4,0.6c0.2,0.2,0.4,0.3,0.7,0.4
					c0.3,0.1,0.7,0.2,1.1,0.2c0.7,0,1.3-0.1,1.7-0.3c0.4-0.2,0.6-0.5,0.6-0.9c0-0.3-0.1-0.5-0.3-0.7c-0.2-0.2-0.5-0.3-1-0.5
					c-0.5-0.1-1.1-0.3-1.8-0.5c-1-0.2-1.8-0.5-2.5-0.8c-0.7-0.3-1.2-0.8-1.6-1.3c-0.4-0.5-0.5-1.2-0.5-2c0-0.8,0.2-1.5,0.7-2.1
					c0.4-0.6,1.1-1.1,1.9-1.4c0.8-0.3,1.7-0.5,2.8-0.5c0.9,0,1.7,0.1,2.3,0.3c0.7,0.2,1.2,0.5,1.7,0.9c0.5,0.4,0.8,0.8,1,1.2
					c0.2,0.4,0.4,0.8,0.4,1.3c0,0.1,0,0.2-0.1,0.3c-0.1,0.1-0.2,0.1-0.3,0.1h-2.5c-0.1,0-0.3,0-0.4-0.1c-0.1-0.1-0.2-0.1-0.3-0.2
					c-0.1-0.3-0.3-0.5-0.6-0.7c-0.3-0.2-0.8-0.3-1.3-0.3c-0.6,0-1,0.1-1.3,0.3C67.2,83.7,67,84,67,84.4c0,0.3,0.1,0.5,0.3,0.7
					c0.2,0.2,0.5,0.4,0.9,0.5c0.4,0.1,1,0.3,1.7,0.4c1.2,0.2,2.1,0.5,2.8,0.8c0.7,0.3,1.2,0.7,1.6,1.3c0.3,0.5,0.5,1.2,0.5,2
					c0,0.9-0.2,1.6-0.7,2.2c-0.5,0.6-1.2,1.1-2,1.5C71.1,94.1,70.1,94.3,68.9,94.3z"/>
				<path class="st0" d="M81.2,94.3c-1.3,0-2.3-0.2-3.2-0.5c-0.8-0.4-1.5-0.8-1.9-1.4c-0.4-0.6-0.7-1.2-0.7-1.9c0-0.1,0-0.2,0.1-0.3
					c0.1-0.1,0.2-0.1,0.3-0.1h2.4c0.2,0,0.3,0,0.4,0.1c0.1,0.1,0.2,0.1,0.3,0.2c0.1,0.2,0.2,0.4,0.4,0.6c0.2,0.2,0.4,0.3,0.7,0.4
					c0.3,0.1,0.7,0.2,1.1,0.2c0.7,0,1.3-0.1,1.7-0.3c0.4-0.2,0.6-0.5,0.6-0.9c0-0.3-0.1-0.5-0.3-0.7c-0.2-0.2-0.5-0.3-1-0.5
					c-0.5-0.1-1.1-0.3-1.8-0.5c-1-0.2-1.8-0.5-2.5-0.8c-0.7-0.3-1.2-0.8-1.6-1.3c-0.4-0.5-0.5-1.2-0.5-2c0-0.8,0.2-1.5,0.7-2.1
					c0.4-0.6,1.1-1.1,1.9-1.4c0.8-0.3,1.7-0.5,2.8-0.5c0.9,0,1.7,0.1,2.3,0.3c0.7,0.2,1.2,0.5,1.7,0.9c0.5,0.4,0.8,0.8,1,1.2
					c0.2,0.4,0.4,0.8,0.4,1.3c0,0.1,0,0.2-0.1,0.3c-0.1,0.1-0.2,0.1-0.3,0.1h-2.5c-0.1,0-0.3,0-0.4-0.1c-0.1-0.1-0.2-0.1-0.3-0.2
					c-0.1-0.3-0.3-0.5-0.6-0.7c-0.3-0.2-0.8-0.3-1.3-0.3c-0.6,0-1,0.1-1.3,0.3c-0.3,0.2-0.5,0.5-0.5,0.9c0,0.3,0.1,0.5,0.3,0.7
					c0.2,0.2,0.5,0.4,0.9,0.5c0.4,0.1,1,0.3,1.7,0.4c1.2,0.2,2.1,0.5,2.8,0.8c0.7,0.3,1.2,0.7,1.6,1.3c0.3,0.5,0.5,1.2,0.5,2
					c0,0.9-0.2,1.6-0.7,2.2c-0.5,0.6-1.2,1.1-2,1.5C83.3,94.1,82.3,94.3,81.2,94.3z"/>
				<path class="st0" d="M93.9,94.3c-1.2,0-2.2-0.2-3.1-0.6c-0.9-0.4-1.6-1-2-1.7c-0.5-0.8-0.8-1.7-0.8-2.9c0-0.6,0-1.1,0-1.7
					c0-0.6,0-1.1,0-1.7c0.1-1.2,0.3-2.1,0.8-2.9c0.5-0.8,1.2-1.4,2.1-1.8c0.9-0.4,1.9-0.6,3-0.6c1.2,0,2.2,0.2,3.1,0.6
					c0.9,0.4,1.6,1,2.1,1.8c0.5,0.8,0.8,1.8,0.8,2.9c0,0.6,0,1.1,0,1.7c0,0.6,0,1.1,0,1.7c0,1.2-0.3,2.1-0.8,2.9
					c-0.5,0.8-1.2,1.4-2,1.7C96.2,94.1,95.1,94.3,93.9,94.3z M93.9,91.5c0.7,0,1.2-0.2,1.7-0.6c0.4-0.4,0.7-1.1,0.7-2
					c0-0.6,0-1.1,0-1.6s0-1,0-1.6c0-0.6-0.1-1.1-0.3-1.5c-0.2-0.4-0.5-0.7-0.8-0.8c-0.3-0.2-0.7-0.3-1.2-0.3c-0.4,0-0.8,0.1-1.2,0.3
					c-0.3,0.2-0.6,0.5-0.8,0.8c-0.2,0.4-0.3,0.9-0.3,1.5c0,0.5,0,1.1,0,1.6s0,1,0,1.6c0,0.9,0.3,1.6,0.7,2
					C92.7,91.3,93.3,91.5,93.9,91.5z"/>
				<path class="st1" d="M101.7,94.1c-0.2,0-0.3-0.1-0.4-0.2c-0.1-0.1-0.1-0.2-0.1-0.4v-2.6c0-0.2,0-0.3,0.1-0.4
					c0.1-0.1,0.2-0.1,0.4-0.1h2.6c0.1,0,0.3,0,0.4,0.1c0.1,0.1,0.2,0.2,0.2,0.4v2.6c0,0.1-0.1,0.3-0.2,0.4c-0.1,0.1-0.2,0.2-0.4,0.2
					H101.7z"/>
			</g>
		</g>
	</g>
</g>
<g>
</g>
<g>
</g>
<g>
</g>
<g>
</g>
<g>
</g>
<g>
</g>
<g>
</g>
<g>
</g>
<g>
</g>
<g>
</g>
<g>
</g>
</svg>
